<svg width="125" height="65" viewBox="0 0 125 65" fill="none" xmlns="http://www.w3.org/2000/svg">
<g clip-path="url(#clip0_182_666)">
<mask id="mask0_182_666" style="mask-type:luminance" maskUnits="userSpaceOnUse" x="-95" y="-80" width="316" height="226">
<path d="M220.144 -79.9014H-94.9351V145.936H220.144V-79.9014Z" fill="white"/>
</mask>
<g mask="url(#mask0_182_666)">
<path d="M36.1194 18.0222H27.7268C27.7268 14.2557 25.1744 11.0044 19.6433 11.0044C14.8772 11.0044 11.6332 13.1255 11.6332 16.4527C11.6332 19.4661 14.1965 20.5333 20.7612 21.9143C30.9794 23.9861 37.4199 26.5598 37.4199 35.4742C37.4199 43.8862 30.4802 49.2594 19.6426 49.2594C11.2204 49.2594 2.26758 44.4515 2.26758 33.9676H10.6295C10.6295 39.1155 14.9397 41.8501 19.6426 41.8501C24.8379 41.8501 28.9319 39.8682 28.9319 35.7253C28.9319 32.9627 27.0157 31.268 19.0891 29.6985C11.162 28.1293 3.31586 25.7438 3.31586 16.3901C3.31586 8.91929 9.61114 3.61969 19.6433 3.61969C30.9764 3.61969 36.1194 11.1167 36.1194 18.0222Z" fill="#332A15"/>
</g>
<mask id="mask1_182_666" style="mask-type:luminance" maskUnits="userSpaceOnUse" x="-95" y="-80" width="316" height="226">
<path d="M220.144 -79.9014H-94.9351V145.936H220.144V-79.9014Z" fill="white"/>
</mask>
<g mask="url(#mask1_182_666)">
<path d="M70.7424 48.4058H62.565V29.5042C62.565 27.6202 62.0077 23.0987 56.6181 23.0987C52.9632 23.0987 50.4235 25.8618 50.4235 29.5042V48.4058H42.2461V16.0653H50.0515V19.2055C52.096 16.7562 54.8834 15.2493 58.2906 15.2493C65.7865 15.2493 70.7424 20.9639 70.7424 29.5042V48.4058Z" fill="#332A15"/>
</g>
<mask id="mask2_182_666" style="mask-type:luminance" maskUnits="userSpaceOnUse" x="-95" y="-80" width="316" height="226">
<path d="M220.144 -79.9014H-94.9351V145.936H220.144V-79.9014Z" fill="white"/>
</mask>
<g mask="url(#mask2_182_666)">
<path d="M94.1112 49.097C90.4555 49.097 87.1726 47.6524 84.7568 45.2664L84.7553 62.4145H76.5161L76.5176 16.0657H84.3847V19.4566C86.8627 16.8821 90.2699 15.3123 94.1108 15.3123C102.473 15.3123 109.287 22.5964 109.287 32.1417C109.288 41.7495 102.474 49.097 94.1112 49.097ZM92.9338 23.0361C88.4117 23.0361 84.7568 27.1179 84.7568 32.1417C84.7568 37.2284 88.4117 41.3728 92.9338 41.3728C97.4562 41.3728 101.111 37.4166 101.111 32.1417C101.111 26.9293 97.4562 23.0361 92.9338 23.0361Z" fill="#332A15"/>
</g>
<mask id="mask3_182_666" style="mask-type:luminance" maskUnits="userSpaceOnUse" x="-95" y="-80" width="316" height="226">
<path d="M220.144 -79.9014H-94.9351V145.936H220.144V-79.9014Z" fill="white"/>
</mask>
<g mask="url(#mask3_182_666)">
<path d="M111.053 7.95868H114.907C115.993 7.95868 116.846 8.28419 117.402 8.83505C117.859 9.3108 118.117 9.96182 118.117 10.7255V10.7506C118.117 12.1903 117.266 13.0542 116.055 13.4047L118.389 16.7224H116.598L114.474 13.6676H114.449H112.572V16.7224H111.053V7.95868H111.053ZM114.795 12.303C115.882 12.303 116.574 11.7271 116.574 10.8382V10.8132C116.574 9.87418 115.907 9.36088 114.783 9.36088H112.573V12.303H114.795Z" fill="#332A15"/>
</g>
<mask id="mask4_182_666" style="mask-type:luminance" maskUnits="userSpaceOnUse" x="-95" y="-80" width="316" height="226">
<path d="M220.144 -79.9014H-94.9351V145.936H220.144V-79.9014Z" fill="white"/>
</mask>
<g mask="url(#mask4_182_666)">
<path d="M114.273 21.2522C109.494 21.2522 105.605 17.3101 105.605 12.4657C105.605 7.62103 109.494 3.67924 114.273 3.67924C119.053 3.67924 122.941 7.62103 122.941 12.4657C122.941 17.3101 119.053 21.2522 114.273 21.2522ZM114.273 5.31742C110.385 5.31742 107.221 8.52434 107.221 12.4657C107.221 16.4072 110.385 19.6141 114.273 19.6141C118.161 19.6141 121.325 16.4072 121.325 12.4657C121.325 8.52434 118.162 5.31742 114.273 5.31742Z" fill="#332A15"/>
</g>
</g>
<defs>
<clipPath id="clip0_182_666">
<rect width="125" height="65" fill="white"/>
</clipPath>
</defs>
</svg>
