<svg width="123" height="90" viewBox="0 0 123 90" fill="none" xmlns="http://www.w3.org/2000/svg">
<mask id="mask0_182_861" style="mask-type:luminance" maskUnits="userSpaceOnUse" x="0" y="0" width="123" height="90">
<path d="M123 0H0V89.1935H123V0Z" fill="white"/>
</mask>
<g mask="url(#mask0_182_861)">
<path d="M51.1608 38.6745H47.8845C47.8845 37.187 46.8881 35.9029 44.7289 35.9029C42.8683 35.9029 41.6019 36.7406 41.6019 38.0547C41.6019 39.2448 42.6026 39.6663 45.1653 40.2117C49.1543 41.03 51.6685 42.0464 51.6685 45.5671C51.6685 48.8894 48.9594 51.0115 44.7286 51.0115C41.4408 51.0115 37.9458 49.1127 37.9458 44.9721H41.2101C41.2101 47.0052 42.8927 48.0853 44.7286 48.0853C46.7568 48.0853 48.355 47.3025 48.355 45.6663C48.355 44.5752 47.6069 43.9059 44.5126 43.286C41.418 42.6663 38.355 41.7241 38.355 38.0299C38.355 35.0794 40.8126 32.9863 44.7289 32.9863C49.1531 32.9863 51.1608 35.9472 51.1608 38.6745Z" fill="#332A15"/>
</g>
<mask id="mask1_182_861" style="mask-type:luminance" maskUnits="userSpaceOnUse" x="0" y="0" width="123" height="90">
<path d="M123 0H0V89.1935H123V0Z" fill="white"/>
</mask>
<g mask="url(#mask1_182_861)">
<path d="M64.6771 50.6744H61.4848V43.2093C61.4848 42.4652 61.2672 40.6794 59.1633 40.6794C57.7365 40.6794 56.745 41.7707 56.745 43.2093V50.6744H53.5527V37.9016H56.5998V39.1418C57.3979 38.1745 58.4861 37.5793 59.8162 37.5793C62.7424 37.5793 64.6771 39.8363 64.6771 43.2093V50.6744Z" fill="#332A15"/>
</g>
<mask id="mask2_182_861" style="mask-type:luminance" maskUnits="userSpaceOnUse" x="0" y="0" width="123" height="90">
<path d="M123 0H0V89.1935H123V0Z" fill="white"/>
</mask>
<g mask="url(#mask2_182_861)">
<path d="M73.7999 50.9474C72.3728 50.9474 71.0912 50.3768 70.1481 49.4345L70.1475 56.2071H66.9312L66.9317 37.9018H70.0029V39.2411C70.9702 38.2243 72.3003 37.6042 73.7997 37.6042C77.0643 37.6042 79.7244 40.4811 79.7244 44.251C79.7245 48.0455 77.0645 50.9474 73.7999 50.9474ZM73.3403 40.6548C71.5749 40.6548 70.1481 42.2668 70.1481 44.251C70.1481 46.2599 71.5749 47.8968 73.3403 47.8968C75.1057 47.8968 76.5325 46.3343 76.5325 44.251C76.5324 42.1924 75.1057 40.6548 73.3403 40.6548Z" fill="#332A15"/>
</g>
<mask id="mask3_182_861" style="mask-type:luminance" maskUnits="userSpaceOnUse" x="0" y="0" width="123" height="90">
<path d="M123 0H0V89.1935H123V0Z" fill="white"/>
</mask>
<g mask="url(#mask3_182_861)">
<path d="M80.4132 34.7H81.9176C82.3418 34.7 82.6746 34.8285 82.8915 35.0461C83.0699 35.234 83.171 35.4911 83.171 35.7927V35.8026C83.171 36.3712 82.8385 36.7124 82.3659 36.8508L83.2771 38.1612H82.578L81.7487 36.9547H81.7391H81.0063V38.1612H80.4131V34.7H80.4132ZM81.8741 36.4157C82.2984 36.4157 82.5684 36.1883 82.5684 35.8372V35.8273C82.5684 35.4565 82.3081 35.2537 81.8694 35.2537H81.0064V36.4157H81.8741Z" fill="#332A15"/>
</g>
<path d="M81.6708 39.9504C79.8049 39.9504 78.2871 38.3935 78.2871 36.4802C78.2871 34.5668 79.8049 33.01 81.6708 33.01C83.5366 33.01 85.0545 34.5668 85.0545 36.4802C85.0546 38.3935 83.5368 39.9504 81.6708 39.9504ZM81.6708 33.657C80.1528 33.657 78.918 34.9236 78.918 36.4802C78.918 38.0368 80.153 39.3034 81.6708 39.3034C83.1886 39.3034 84.4236 38.0368 84.4236 36.4802C84.4236 34.9236 83.1888 33.657 81.6708 33.657Z" fill="#332A15"/>
</svg>
